<svg xmlns="http://www.w3.org/2000/svg" version="1.1" xmlns:xlink="http://www.w3.org/1999/xlink" viewBox="0 0 200 200"><rect width="200" height="200" rx="50" fill="url('#gradient')"></rect><defs><linearGradient id="gradient" gradientTransform="rotate(155 0.5 0.5)"><stop offset="0%" stop-color="#8ecbc0"></stop><stop offset="100%" stop-color="#b07fce"></stop></linearGradient></defs><g><g fill="#213459" transform="matrix(5.330892448512586,0,0,5.330892448512586,0.0457676229542443,130.86687860641655)" stroke="#264a39" stroke-width="0.25"><path d="M3.48-14.22L3.48 2.64L1.68 2.64L1.68-14.22L3.48-14.22ZM6.32-6.68L8.54-9.34L5.36-10.21L6.00-12.06L9.11-10.78L8.87-14.22L10.96-14.22L10.70-10.71L13.73-11.96L14.37-10.10L11.14-9.22L13.28-6.63L11.59-5.48L9.80-8.35L8.01-5.58L6.32-6.68ZM21.76-7.40L21.76-4.85L15.89-4.85L15.89-7.40L21.76-7.40ZM29.55-7.12L27.89-11.54L26.22-7.12L23.75-7.12L26.67-14.22L29.10-14.22L32.03-7.12L29.55-7.12ZM35.82-14.22L35.82 2.64L34.02 2.64L34.02-14.22L35.82-14.22Z"></path></g></g></svg>