<svg xmlns="http://www.w3.org/2000/svg" version="1.1" xmlns:xlink="http://www.w3.org/1999/xlink" viewBox="0 0 200 200"><rect width="200" height="200" rx="50" fill="url('#gradient')"></rect><defs><linearGradient id="gradient" gradientTransform="rotate(155 0.5 0.5)"><stop offset="0%" stop-color="#9ec8c0"></stop><stop offset="100%" stop-color="#b07fce"></stop></linearGradient></defs><g><g fill="#273a5f" transform="matrix(4.281533101045296,0,0,4.281533101045296,10.985908199935011,124.1687839780535)" stroke="#264a39" stroke-width="0.25"><path d="M1.17-5.34L1.17-5.78Q1.17-8.16 1.81-10.21Q2.44-12.27 3.56-13.69Q4.68-15.12 6.04-15.68L6.04-15.68L6.67-14.06Q5.30-13.06 4.56-10.92Q3.81-8.79 3.80-5.92L3.80-5.92L3.80-5.49Q3.80-2.55 4.55-0.39Q5.29 1.77 6.67 2.77L6.67 2.77L6.04 4.39Q4.70 3.85 3.56 2.40Q2.42 0.95 1.81-1.06Q1.19-3.08 1.17-5.34L1.17-5.34ZM8.27-6.68L10.50-9.34L7.31-10.21L7.95-12.06L11.06-10.78L10.82-14.22L12.91-14.22L12.66-10.71L15.68-11.96L16.32-10.10L13.10-9.22L15.23-6.63L13.54-5.48L11.76-8.35L9.96-5.58L8.27-6.68ZM23.71-7.40L23.71-4.85L17.84-4.85L17.84-7.40L23.71-7.40ZM31.50-7.12L29.84-11.54L28.17-7.12L25.70-7.12L28.62-14.22L31.05-14.22L33.98-7.12L31.50-7.12ZM40.41-5.94L40.41-5.51Q40.41-3.21 39.74-1.15Q39.06 0.91 37.88 2.39Q36.69 3.87 35.31 4.39L35.31 4.39L34.69 2.77Q36.04 1.76 36.79-0.35Q37.53-2.46 37.56-5.21L37.56-5.21L37.56-5.80Q37.56-8.74 36.81-10.90Q36.06-13.06 34.69-14.06L34.69-14.06L35.31-15.68Q36.68-15.15 37.86-13.70Q39.03-12.25 39.71-10.21Q40.39-8.17 40.41-5.94L40.41-5.94Z"></path></g></g></svg>